HIERARCHY
ROOT Hips
{
	OFFSET 0.000000 8.830580 0.000000
	CHANNELS 6 Xposition Yposition Zposition Zrotation Yrotation Xrotation 
	JOINT Spine
	{
		OFFSET 0.000000 0.010000 0.000000
		CHANNELS 3 Zrotation Yrotation Xrotation
		JOINT Spine1
		{
			OFFSET 0.000000 2.459130 0.000000
			CHANNELS 3 Zrotation Yrotation Xrotation
			JOINT Neck
			{
				OFFSET 0.000000 2.484630 0.000000
				CHANNELS 3 Zrotation Yrotation Xrotation
				JOINT Head_virtual
				{
					OFFSET 0.000000 0.000000 0.000000
					CHANNELS 3 Zrotation Yrotation Xrotation
					JOINT Head
					{
						OFFSET 0.000000 0.927525 0.000000
						CHANNELS 3 Zrotation Yrotation Xrotation
						End Site
						{
							OFFSET 0.000000 0.000000 0.000000
						}
					}
				}
				JOINT LeftUpArm_virtual
				{
					OFFSET 0.000000 0.000000 0.000000
					CHANNELS 3 Zrotation Yrotation Xrotation
					JOINT LeftUpArm
					{
						OFFSET 1.248820 0.000000 0.000000
						CHANNELS 3 Zrotation Yrotation Xrotation
						JOINT LeftForeArm
						{
							OFFSET 2.597580 0.000000 0.000000
							CHANNELS 3 Zrotation Yrotation Xrotation
							JOINT LeftHand
							{
								OFFSET 2.455420 0.000000 0.000000
								CHANNELS 3 Zrotation Yrotation Xrotation
								End Site
								{
									OFFSET 0.000000 0.000000 0.000000
								}
							}
						}
					}
				}
				JOINT RightUpArm_virtual
				{
					OFFSET -0.000000 -0.000000 -0.000000
					CHANNELS 3 Zrotation Yrotation Xrotation
					JOINT RightUpArm
					{
						OFFSET -1.248820 -0.000000 -0.000000
						CHANNELS 3 Zrotation Yrotation Xrotation
						JOINT RightForeArm
						{
							OFFSET -2.597580 -0.000000 -0.000000
							CHANNELS 3 Zrotation Yrotation Xrotation
							JOINT RightHand
							{
								OFFSET -2.455420 -0.000000 -0.000000
								CHANNELS 3 Zrotation Yrotation Xrotation
								End Site
								{
									OFFSET 0.000000 0.000000 0.000000
								}
							}
						}
					}
				}
			}
		}
	}
	JOINT LeftUpLeg
	{
		OFFSET 1.271939 0.000000 0.000000
		CHANNELS 3 Zrotation Yrotation Xrotation
		JOINT LeftLowLeg
		{
			OFFSET 0.000000 -4.342910 0.000000
			CHANNELS 3 Zrotation Yrotation Xrotation
			JOINT LeftFoot
			{
				OFFSET 0.000000 -4.487670 0.000000
				CHANNELS 3 Zrotation Yrotation Xrotation
				JOINT LeftToeBase
				{
					OFFSET 0.000000 0.000000 1.515070
					CHANNELS 3 Zrotation Yrotation Xrotation
					End Site
					{
						OFFSET 0.000000 0.000000 0.000000
					}
				}
			}
		}
	}
	JOINT RightUpLeg
	{
		OFFSET -1.271939 0.000000 0.000000
		CHANNELS 3 Zrotation Yrotation Xrotation
		JOINT RightLowLeg
		{
			OFFSET 0.000000 -4.342910 0.000000
			CHANNELS 3 Zrotation Yrotation Xrotation
			JOINT RightFoot
			{
				OFFSET 0.000000 -4.487670 0.000000
				CHANNELS 3 Zrotation Yrotation Xrotation
				JOINT RightToeBase
				{
					OFFSET 0.000000 0.000000 1.515070
					CHANNELS 3 Zrotation Yrotation Xrotation
					End Site
					{
						OFFSET 0.000000 0.000000 0.000000
					}
				}
			}
		}
	}
}
MOTION
Frames: 15
Frame Time: 0.041667
-18.760680 7.109281 36.204499 -176.172517 0.966685 169.636722 3.648261 -0.722424 18.831553 1.585835 0.000635 -10.264100 0.000000 0.000000 0.000000 -3.182739 -20.854286 18.441084 18.308579 16.059950 -92.915573 -27.280199 5.327430 8.906690 -26.843599 -25.143900 26.359301 180.000000 -86.325302 -180.000000 -16.045200 40.646500 -91.625298 20.546101 0.297088 1.949005 -3.364710 43.596001 -16.708200 180.000000 50.589996 -180.000000 -61.983002 28.371401 10.551700 0.060964 11.341039 -46.694272 0.000000 0.000000 62.935200 -12.157068 4.318216 0.288619 0.000000 0.000000 -33.430099 1.875409 -2.133013 -46.128480 0.000000 0.000000 65.279198 12.114633 5.815825 5.059751 0.000000 0.000000 -48.433998 
-18.760815 7.109883 36.204214 -176.172847 0.968601 169.643462 3.644947 -0.701213 18.881867 1.562040 0.023073 -10.461701 0.000000 0.000000 0.000000 -2.995711 -20.972672 18.008876 18.320909 16.096264 -92.941904 -27.213200 5.224150 8.999090 -26.881500 -25.070801 26.371000 180.000000 -86.323601 -180.000000 -16.156500 40.618401 -91.569199 20.502001 0.329994 1.951996 -3.394930 43.637001 -17.009800 180.000000 50.621994 180.000000 -62.078098 28.852600 10.363800 0.059642 11.338974 -46.692477 0.000000 0.000000 62.924301 -12.154708 4.323873 0.294338 0.000000 0.000000 -33.455601 1.875212 -2.137101 -46.123630 0.000000 0.000000 65.264603 12.147496 5.835446 5.059114 0.000000 0.000000 -48.410400 
-18.761035 7.110061 36.204063 -176.159262 0.961682 169.654072 3.648558 -0.676353 18.953170 1.574400 0.051883 -10.686004 0.000000 0.000000 0.000000 -2.891208 -20.991289 17.672043 18.331440 16.127609 -92.967956 -27.142099 5.140720 9.040130 -26.967600 -24.974600 26.451799 180.000000 -86.305496 -180.000000 -16.101000 40.584202 -91.519501 20.422001 0.297113 1.945007 -3.430380 43.741100 -17.248501 180.000000 50.576004 -180.000000 -62.000301 28.804600 10.586300 0.068759 11.324168 -46.704331 0.000000 0.000000 62.927299 -12.151380 4.333144 0.291433 0.000000 0.000000 -33.415701 1.892486 -2.170001 -46.128825 0.000000 0.000000 65.258797 12.104535 5.830882 5.069286 0.000000 0.000000 -48.429298 
-18.761332 7.110598 36.203814 -176.150045 0.964287 169.658523 3.647701 -0.670176 18.980548 1.570276 0.059930 -10.829106 0.000000 0.000000 0.000000 -2.735921 -21.084678 17.345605 18.277652 16.185483 -93.018822 -27.137600 5.106280 9.086350 -26.944099 -24.970100 26.036699 -180.000000 -86.355301 180.000000 -17.923700 40.825600 -91.184502 20.368799 0.319712 1.907990 -3.422150 43.806599 -17.459999 -180.000000 50.518005 -180.000000 -61.739700 28.710100 10.764000 0.078787 11.319068 -46.700227 0.000000 0.000000 62.921001 -12.160978 4.331305 0.287622 0.000000 0.000000 -33.421600 1.907529 -2.202869 -46.121515 0.000000 0.000000 65.243797 12.103653 5.866936 5.074490 0.000000 0.000000 -48.419998 
-18.761529 7.111339 36.203500 -176.145014 0.967693 169.662541 3.636979 -0.670464 18.991451 1.567134 0.056861 -10.964805 0.000000 0.000000 0.000000 -2.640052 -21.096631 17.145918 18.266108 16.257218 -93.071895 -27.114099 5.103870 9.125080 -26.958500 -25.004900 25.736900 -180.000000 -86.536003 180.000000 -19.940100 40.120098 -92.445297 20.353701 0.391706 2.001007 -3.556970 43.805099 -17.858200 180.000000 50.483994 180.000000 -61.626099 28.911900 10.822600 0.084225 11.318271 -46.695369 0.000000 0.000000 62.911800 -12.157264 4.334994 0.291534 0.000000 0.000000 -33.454000 1.916686 -2.228358 -46.114226 0.000000 0.000000 65.226196 12.106737 5.890118 5.094185 0.000000 0.000000 -48.442299 
-18.761680 7.112170 36.203220 -176.145250 0.974372 169.671412 3.624277 -0.669340 18.976045 1.560928 0.053407 -11.052005 0.000000 0.000000 0.000000 -2.566995 -21.063388 16.961802 18.248670 16.322441 -93.090382 -27.066200 5.077300 9.102080 -27.007299 -24.966101 25.938999 180.000000 -86.693398 -180.000000 -19.839100 39.211399 -94.318298 20.344200 0.465286 2.013000 -3.616040 43.797199 -18.084101 180.000000 50.475006 180.000000 -61.608002 28.913700 11.266700 0.082646 11.322672 -46.694845 0.000000 0.000000 62.900902 -12.149706 4.342263 0.294445 0.000000 0.000000 -33.410000 1.923350 -2.256198 -46.109751 0.000000 0.000000 65.205101 12.092597 5.916216 5.097512 0.000000 0.000000 -48.420200 
-18.761870 7.112657 36.203163 -176.141697 0.980652 169.674729 3.614374 -0.670471 18.956548 1.557348 0.048720 -11.114805 0.000000 0.000000 0.000000 -2.511496 -21.024001 16.848180 18.206837 16.415556 -93.161528 -26.990000 5.045150 9.143020 -27.052299 -24.872900 26.381399 -180.000000 -86.489304 180.000000 -17.383301 40.185200 -92.458603 20.334499 0.499383 2.080994 -3.764600 43.851700 -18.388000 180.000000 50.419006 180.000000 -61.876701 28.993200 10.897400 0.085576 11.324746 -46.693100 0.000000 0.000000 62.895802 -12.152264 4.348081 0.298559 0.000000 0.000000 -33.416901 1.933183 -2.281786 -46.105096 0.000000 0.000000 65.188698 12.080218 5.934855 5.121182 0.000000 0.000000 -48.464600 
-18.762523 7.112847 36.203540 -176.140568 0.990107 169.673351 3.618811 -0.683472 18.946599 1.541845 0.040511 -11.190903 0.000000 0.000000 0.000000 -2.454795 -21.022930 16.766091 18.175980 16.472446 -93.191199 -26.992201 4.994650 9.171190 -27.032801 -24.856400 25.857800 180.000000 -86.594299 -180.000000 -19.630600 40.347198 -92.268898 20.299400 0.560900 2.143005 -3.790180 43.873901 -18.604000 180.000000 50.397995 180.000000 -61.908100 28.977400 10.509100 0.087345 11.323727 -46.683716 0.000000 0.000000 62.882401 -12.152477 4.353664 0.292744 0.000000 0.000000 -33.421600 1.937854 -2.305500 -46.101376 0.000000 0.000000 65.176002 12.074926 5.961784 5.134635 0.000000 0.000000 -48.502800 
-18.762790 7.112897 36.203795 -176.135425 0.993986 169.661650 3.624782 -0.705100 18.928087 1.503736 0.024765 -11.222801 0.000000 0.000000 0.000000 -2.385363 -20.992032 16.687735 18.148419 16.547389 -93.187168 -26.955799 4.980050 9.208990 -27.023500 -24.822901 25.911800 -180.000000 -86.584198 180.000000 -19.260401 40.375702 -92.069099 20.283199 0.609454 2.259003 -3.823340 43.838402 -18.761600 180.000000 50.369003 180.000000 -61.678299 28.567200 11.079400 0.098421 11.308937 -46.674116 0.000000 0.000000 62.886398 -12.162422 4.364483 0.294052 0.000000 0.000000 -33.438000 1.946931 -2.328088 -46.089704 0.000000 0.000000 65.171204 12.057380 5.984613 5.152849 0.000000 0.000000 -48.475899 
-18.762770 7.112799 36.204304 -176.132185 0.986238 169.651103 3.631422 -0.729498 18.912192 1.461600 0.007026 -11.266900 0.000000 0.000000 0.000000 -2.334067 -20.963094 16.684308 18.150617 16.597382 -93.141787 -26.926599 4.940300 9.249090 -27.018299 -24.773100 25.926201 180.000000 -86.586197 -180.000000 -19.206900 40.389999 -91.950500 20.259001 0.645396 2.358002 -3.737410 43.782902 -18.764700 180.000000 50.380005 180.000000 -61.578602 28.600100 10.795000 0.103002 11.293132 -46.667021 0.000000 0.000000 62.882198 -12.157951 4.375790 0.302080 0.000000 0.000000 -33.445499 1.950349 -2.346983 -46.081590 0.000000 0.000000 65.167000 12.061302 5.982595 5.156681 0.000000 0.000000 -48.534100 
-18.762714 7.112651 36.204983 -176.127213 0.973090 169.634761 3.636715 -0.745888 18.901363 1.434185 -0.004840 -11.277300 0.000000 0.000000 0.000000 -2.322319 -20.886489 16.688748 18.106843 16.646589 -93.103687 -26.900700 4.933290 9.203020 -27.069201 -24.743601 26.222300 -180.000000 -86.589104 180.000000 -18.819500 39.953400 -93.109497 20.259300 0.590692 2.389008 -3.621400 43.772800 -18.589399 180.000000 50.444000 180.000000 -61.372700 28.698099 10.715700 0.106935 11.280171 -46.655425 0.000000 0.000000 62.877300 -12.152117 4.378447 0.308901 0.000000 0.000000 -33.437500 1.952344 -2.361589 -46.069091 0.000000 0.000000 65.167503 12.046782 5.981308 5.163295 0.000000 0.000000 -48.493500 
-18.762365 7.112211 36.205425 -176.119708 0.963593 169.618513 3.631826 -0.753908 18.890697 1.432808 -0.014514 -11.291100 0.000000 0.000000 0.000000 -2.291838 -20.903259 16.744096 18.054387 16.666437 -93.061819 -26.874201 4.897560 9.233230 -27.125000 -24.724600 26.095800 -180.000000 -86.696503 180.000000 -19.453600 39.803001 -93.224403 20.273800 0.571905 2.473999 -3.539790 43.696098 -18.433901 -180.000000 50.522995 -180.000000 -60.951199 28.642200 10.830500 0.122025 11.256641 -46.646502 0.000000 0.000000 62.883499 -12.163496 4.382336 0.310207 0.000000 0.000000 -33.434099 1.958727 -2.365546 -46.059141 0.000000 0.000000 65.172203 12.058007 5.972409 5.170209 0.000000 0.000000 -48.531799 
-18.762193 7.111450 36.206407 -176.119729 0.970884 169.589182 3.612566 -0.751764 18.869085 1.451920 -0.022717 -11.277601 0.000000 0.000000 0.000000 -2.350998 -20.808842 16.862754 18.067722 16.650722 -92.973842 -26.856800 4.850050 9.291570 -27.178801 -24.664000 26.027599 180.000000 -86.618797 -180.000000 -19.182699 40.616798 -91.479897 20.258801 0.554679 2.467010 -3.142690 43.590698 -17.895399 -180.000000 50.677994 -180.000000 -60.555000 28.664000 11.175300 0.126391 11.273101 -46.627484 0.000000 0.000000 62.886002 -12.160381 4.376955 0.313414 0.000000 0.000000 -33.472200 1.958079 -2.352421 -46.044257 0.000000 0.000000 65.181297 12.057781 5.972752 5.178246 0.000000 0.000000 -48.540298 
-18.761974 7.109691 36.209266 -176.121865 0.985407 169.558468 3.566805 -0.741657 18.869440 1.513692 -0.037085 -11.303102 0.000000 0.000000 0.000000 -2.459184 -20.702289 17.136569 17.994311 16.596762 -92.801572 -26.849899 4.821860 9.422700 -27.239099 -24.693001 25.978600 -180.000000 -86.681396 180.000000 -19.394400 40.344398 -91.782799 20.230301 0.489032 2.660004 -2.614260 43.428101 -17.228600 180.000000 51.093994 180.000000 -59.854401 28.427500 11.996900 0.131264 11.285788 -46.626727 0.000000 0.000000 62.899601 -12.149766 4.380369 0.327758 0.000000 0.000000 -33.471901 1.955458 -2.321928 -46.049276 0.000000 0.000000 65.194504 12.070222 5.958982 5.200055 0.000000 0.000000 -48.517502 
-18.761321 7.109136 36.210493 -176.118994 0.984699 169.515173 3.536006 -0.753779 18.807189 1.516945 -0.064420 -11.259607 0.000000 0.000000 0.000000 -2.650755 -20.476015 17.587740 17.882371 16.572043 -92.627016 -26.864401 4.775410 9.476620 -27.276699 -24.671400 26.227600 -180.000000 -86.867500 180.000000 -18.686800 39.429001 -93.171600 20.263399 0.536356 2.968994 -2.046260 43.050598 -16.498600 -180.000000 51.632004 -180.000000 -59.671299 28.698799 12.059900 0.144586 11.290384 -46.591039 0.000000 0.000000 62.896000 -12.164261 4.366055 0.335474 0.000000 0.000000 -33.471100 1.957182 -2.306095 -46.017458 0.000000 0.000000 65.196701 12.082833 5.945337 5.214857 0.000000 0.000000 -48.532600 
